<svg xmlns="http://www.w3.org/2000/svg" xmlns:xlink="http://www.w3.org/1999/xlink" width="387" zoomAndPan="magnify" viewBox="0 0 290.25 83.249999" height="111" preserveAspectRatio="xMidYMid meet" version="1.0"><defs><clipPath id="6df6b5b656"><path d="M 253 34 L 287.839844 34 L 287.839844 70 L 253 70 Z M 253 34 " clip-rule="nonzero"/></clipPath><clipPath id="aaa3ba900d"><path d="M 0.925781 0 L 98 0 L 98 81.761719 L 0.925781 81.761719 Z M 0.925781 0 " clip-rule="nonzero"/></clipPath></defs><path fill="#79b4b0" d="M 96.519531 35.394531 L 96.519531 39.136719 C 97.640625 37.640625 98.925781 36.535156 100.367188 35.816406 C 101.816406 35.097656 103.46875 34.738281 105.324219 34.738281 C 107.976562 34.738281 110.253906 35.207031 112.140625 36.144531 C 114.027344 37.082031 115.652344 38.546875 117.007812 40.542969 C 118.304688 38.59375 119.761719 37.128906 121.378906 36.179688 C 122.996094 35.21875 124.785156 34.742188 126.738281 34.742188 C 130.773438 34.742188 133.871094 36.011719 136.023438 38.546875 C 138.179688 41.078125 139.261719 44.707031 139.261719 49.433594 L 139.261719 68.304688 L 131.714844 68.304688 L 131.714844 53.742188 C 131.714844 49.277344 131.214844 46.242188 130.230469 44.640625 C 129.242188 43.035156 127.53125 42.234375 125.09375 42.234375 C 122.65625 42.234375 120.742188 43.136719 119.652344 44.941406 C 118.566406 46.746094 118.023438 49.839844 118.023438 54.226562 L 118.023438 68.3125 L 110.414062 68.3125 L 110.414062 53.75 C 110.414062 49.304688 109.910156 46.273438 108.902344 44.660156 C 107.894531 43.042969 106.128906 42.238281 103.617188 42.238281 C 101.105469 42.238281 99.226562 43.144531 98.105469 44.949219 C 96.984375 46.75 96.425781 49.847656 96.425781 54.234375 L 95.714844 67.855469 L 89.027344 68.324219 L 89 36.347656 L 96.511719 35.429688 Z M 96.519531 35.394531 " fill-opacity="1" fill-rule="nonzero"/><path fill="#79b4b0" d="M 152.953125 65.664062 L 152.953125 78.945312 L 145.40625 78.945312 L 145.40625 35.394531 L 152.953125 35.394531 L 152.953125 38.144531 C 154.492188 36.929688 156.097656 36.023438 157.773438 35.433594 C 159.453125 34.84375 161.261719 34.550781 163.195312 34.550781 C 165.269531 34.550781 167.230469 34.871094 169.0625 35.523438 C 170.902344 36.171875 172.546875 37.128906 174.003906 38.40625 C 175.980469 40.121094 177.503906 42.144531 178.570312 44.476562 C 179.640625 46.8125 180.175781 49.292969 180.175781 51.925781 C 180.175781 54.378906 179.691406 56.71875 178.726562 58.953125 C 177.757812 61.183594 176.382812 63.109375 174.609375 64.726562 C 173.09375 66.160156 171.359375 67.257812 169.414062 68.015625 C 167.464844 68.773438 165.410156 69.148438 163.253906 69.148438 C 161.097656 69.148438 159.273438 68.867188 157.605469 68.296875 C 155.941406 67.726562 154.382812 66.851562 152.945312 65.648438 Z M 153.253906 51.691406 C 153.253906 54.5 154.164062 56.855469 155.980469 58.738281 C 157.800781 60.621094 160.042969 61.566406 162.722656 61.566406 C 165.402344 61.566406 167.613281 60.609375 169.480469 58.699219 C 171.347656 56.785156 172.28125 54.496094 172.28125 51.820312 C 172.28125 49.144531 171.339844 46.746094 169.464844 44.914062 C 167.585938 43.078125 165.222656 42.164062 162.367188 42.164062 C 159.851562 42.164062 157.707031 43.089844 155.929688 44.933594 C 154.148438 46.777344 153.261719 49.039062 153.261719 51.707031 Z M 153.253906 51.691406 " fill-opacity="1" fill-rule="nonzero"/><path fill="#79b4b0" d="M 192.976562 32.050781 L 185.488281 32.050781 L 185.488281 24.753906 L 192.976562 24.753906 Z M 185.480469 68.292969 L 185.480469 35.394531 L 192.96875 35.394531 L 192.96875 68.292969 Z M 185.480469 68.292969 " fill-opacity="1" fill-rule="nonzero"/><path fill="#79b4b0" d="M 205.761719 54.265625 C 206.023438 56.640625 206.960938 58.511719 208.59375 59.871094 C 210.21875 61.238281 212.320312 61.921875 214.898438 61.921875 C 216.621094 61.921875 218.15625 61.558594 219.527344 60.84375 C 220.898438 60.125 221.976562 59.121094 222.777344 57.820312 L 231.042969 57.820312 C 229.644531 61.40625 227.550781 64.195312 224.765625 66.179688 C 221.976562 68.164062 218.761719 69.15625 215.101562 69.15625 C 212.644531 69.15625 210.378906 68.71875 208.320312 67.855469 C 206.25 66.992188 204.398438 65.710938 202.765625 64.015625 C 201.207031 62.398438 200 60.527344 199.140625 58.410156 C 198.28125 56.285156 197.851562 54.105469 197.851562 51.871094 C 197.851562 49.640625 198.246094 47.421875 199.03125 45.398438 C 199.816406 43.371094 200.988281 41.554688 202.523438 39.941406 C 204.203125 38.164062 206.097656 36.800781 208.21875 35.84375 C 210.332031 34.886719 212.523438 34.410156 214.777344 34.410156 C 217.632812 34.410156 220.300781 35.058594 222.777344 36.351562 C 225.253906 37.648438 227.363281 39.46875 229.097656 41.824219 C 230.15625 43.238281 230.9375 44.828125 231.445312 46.578125 C 231.957031 48.332031 232.210938 50.34375 232.210938 52.617188 C 232.210938 52.796875 232.199219 53.074219 232.183594 53.441406 C 232.164062 53.808594 232.15625 54.085938 232.15625 54.265625 Z M 223.945312 48.199219 C 223.289062 46.007812 222.1875 44.335938 220.636719 43.191406 C 219.089844 42.042969 217.136719 41.476562 214.777344 41.476562 C 212.746094 41.476562 210.917969 42.089844 209.300781 43.332031 C 207.679688 44.566406 206.59375 46.195312 206.035156 48.207031 L 223.953125 48.207031 Z M 223.945312 48.199219 " fill-opacity="1" fill-rule="nonzero"/><path fill="#79b4b0" d="M 252.34375 42.066406 C 249.367188 42.304688 247.292969 43.082031 246.113281 44.398438 C 244.9375 45.710938 244.347656 48.085938 244.347656 51.519531 L 244.347656 68.296875 L 236.675781 68.296875 L 236.675781 35.402344 L 243.867188 35.402344 L 243.867188 39.203125 C 245.023438 37.726562 246.292969 36.648438 247.675781 35.957031 C 249.054688 35.265625 250.609375 34.925781 252.351562 34.925781 L 252.351562 42.070312 Z M 252.34375 42.066406 " fill-opacity="1" fill-rule="nonzero"/><g clip-path="url(#6df6b5b656)"><path fill="#79b4b0" d="M 261.386719 54.265625 C 261.652344 56.640625 262.589844 58.511719 264.222656 59.871094 C 265.847656 61.238281 267.949219 61.921875 270.527344 61.921875 C 272.246094 61.921875 273.785156 61.558594 275.15625 60.84375 C 276.523438 60.125 277.605469 59.121094 278.40625 57.820312 L 286.671875 57.820312 C 285.273438 61.40625 283.179688 64.195312 280.390625 66.179688 C 277.605469 68.164062 274.390625 69.15625 270.730469 69.15625 C 268.273438 69.15625 266.007812 68.71875 263.945312 67.855469 C 261.878906 66.992188 260.027344 65.710938 258.394531 64.015625 C 256.835938 62.398438 255.628906 60.527344 254.765625 58.410156 C 253.90625 56.285156 253.476562 54.105469 253.476562 51.871094 C 253.476562 49.640625 253.875 47.421875 254.660156 45.398438 C 255.445312 43.371094 256.613281 41.554688 258.152344 39.941406 C 259.832031 38.164062 261.722656 36.800781 263.847656 35.84375 C 265.960938 34.886719 268.152344 34.410156 270.40625 34.410156 C 273.261719 34.410156 275.925781 35.058594 278.40625 36.351562 C 280.882812 37.648438 282.992188 39.46875 284.722656 41.824219 C 285.785156 43.238281 286.5625 44.828125 287.074219 46.578125 C 287.585938 48.332031 287.839844 50.34375 287.839844 52.617188 C 287.839844 52.796875 287.824219 53.074219 287.8125 53.441406 C 287.792969 53.808594 287.785156 54.085938 287.785156 54.265625 Z M 279.574219 48.199219 C 278.914062 46.007812 277.8125 44.335938 276.261719 43.191406 C 274.71875 42.042969 272.765625 41.476562 270.40625 41.476562 C 268.371094 41.476562 266.546875 42.089844 264.925781 43.332031 C 263.308594 44.566406 262.222656 46.195312 261.664062 48.207031 L 279.578125 48.207031 Z M 279.574219 48.199219 " fill-opacity="1" fill-rule="nonzero"/></g><g clip-path="url(#aaa3ba900d)"><path fill="#79b4b0" d="M 57.503906 62.425781 C 54.746094 64.597656 52.171875 66.621094 49.601562 68.648438 C 46.222656 71.308594 42.894531 74.023438 39.46875 76.609375 C 29.671875 84 15.664062 83.027344 7.566406 74.457031 C -0.921875 65.476562 -1.394531 51.578125 6.820312 42.152344 C 9.511719 39.0625 12.925781 36.566406 16.167969 33.992188 C 28.234375 24.417969 40.308594 14.859375 52.484375 5.425781 C 65.429688 -4.601562 83.527344 0.117188 90.03125 15.09375 C 93.882812 23.957031 91.402344 35.140625 83.6875 41.910156 C 78.652344 46.328125 73.257812 50.359375 67.933594 54.433594 C 66.53125 55.507812 65.941406 56.59375 65.960938 58.375 C 66.007812 61.695312 66.066406 64.925781 68 67.828125 C 70.714844 71.898438 75.890625 73.910156 80.402344 72.582031 C 85.507812 71.082031 88.738281 66.882812 88.765625 61.695312 C 88.777344 58.175781 88.765625 54.648438 88.757812 51.128906 C 88.757812 48.300781 90.402344 46.484375 92.96875 46.457031 C 95.417969 46.4375 97.246094 48.394531 97.226562 51.117188 C 97.183594 55.695312 97.472656 60.320312 96.9375 64.839844 C 95.921875 73.359375 88.71875 80.210938 80.121094 81.4375 C 71.574219 82.664062 63.058594 78.066406 59.511719 70.136719 C 58.660156 68.230469 58.324219 66.09375 57.773438 64.054688 C 57.652344 63.605469 57.621094 63.128906 57.511719 62.417969 Z M 65.988281 44.8125 C 66.347656 44.660156 66.539062 44.625 66.671875 44.519531 C 70.371094 41.644531 74.1875 38.90625 77.730469 35.855469 C 83.277344 31.082031 84.6875 22.878906 81.34375 16.722656 C 76.804688 8.378906 65.765625 6.304688 58.144531 11.875 C 53.582031 15.207031 49.253906 18.855469 44.8125 22.347656 C 35.210938 29.902344 25.59375 37.4375 15.992188 45 C 10.109375 49.632812 7.929688 57.214844 10.628906 63.660156 C 14.84375 73.714844 26.621094 75.652344 34.789062 69.390625 C 42.179688 63.71875 49.433594 57.851562 56.71875 52.046875 C 57.082031 51.757812 57.472656 51.214844 57.476562 50.785156 C 57.519531 46.0625 57.519531 41.328125 57.464844 36.601562 C 57.453125 35.265625 56.707031 34.609375 55.382812 34.859375 C 54.492188 35.027344 53.578125 35.515625 52.851562 36.085938 C 46.828125 40.769531 40.84375 45.503906 34.855469 50.238281 C 32.578125 52.035156 30.34375 53.871094 28.058594 55.652344 C 25.863281 57.371094 23.199219 57.128906 21.605469 55.105469 C 20.128906 53.226562 20.558594 50.667969 22.675781 49.003906 C 31.136719 42.339844 39.601562 35.6875 48.078125 29.039062 C 50.882812 26.839844 54.082031 25.902344 57.597656 26.570312 C 62.589844 27.53125 65.871094 31.507812 65.980469 36.59375 C 66.035156 39.277344 65.988281 41.964844 65.988281 44.800781 Z M 65.988281 44.8125 " fill-opacity="1" fill-rule="nonzero"/></g></svg>