<svg xmlns="http://www.w3.org/2000/svg" xmlns:xlink="http://www.w3.org/1999/xlink" width="1209" zoomAndPan="magnify" viewBox="0 0 906.75 312.749988" height="417" preserveAspectRatio="xMidYMid meet" version="1.0"><defs><g/></defs><g fill="#79b4b0" fill-opacity="1"><g transform="translate(55.385611, 223.113961)"><g><path d="M 135.15625 -91.5 L 135.15625 -94.53125 L 115.5625 -94.53125 L 115.5625 -91.5 L 123.203125 -91.5 L 89.765625 -22.046875 L 75.5 -53.75 L 93.8125 -91.5 L 101.4375 -91.5 L 101.4375 -94.53125 L 81.5625 -94.53125 L 81.5625 -91.5 L 90.203125 -91.5 L 73.78125 -57.5 L 58.359375 -91.5 L 68.4375 -91.5 L 68.4375 -94.53125 L 34.875 -94.53125 L 34.875 -91.5 L 40.484375 -91.5 L 64.703125 -38.46875 L 56.765625 -22.046875 L 25.21875 -91.5 L 31.703125 -91.5 L 31.703125 -94.53125 L 0 -94.53125 L 0 -91.5 L 7.34375 -91.5 L 49.421875 0.71875 L 66.421875 -34.578125 L 82.5625 0.578125 L 127.234375 -91.5 Z M 135.15625 -91.5 "/></g></g></g><g fill="#79b4b0" fill-opacity="1"><g transform="translate(186.213706, 223.113961)"><g><path d="M 90.34375 -45.09375 L 90.34375 -51.734375 C 90.34375 -69.015625 85.734375 -77.8125 76.953125 -85.875 C 70.03125 -92.21875 59.515625 -95.828125 50.28125 -95.828125 C 26.515625 -95.828125 10.09375 -77.953125 10.09375 -53.453125 L 10.09375 -41.9375 C 10.09375 -28.390625 13.109375 -19.453125 20.609375 -11.234375 C 27.671875 -3.609375 38.328125 1.4375 51.15625 1.4375 C 68.015625 1.4375 80.984375 -7.5 88.765625 -24.5 L 86.03125 -25.796875 C 77.8125 -9.078125 66.71875 -1.578125 51.578125 -1.578125 C 40.34375 -1.578125 33.28125 -6.921875 29.96875 -15.28125 C 27.515625 -21.46875 27.234375 -29.390625 27.234375 -40.0625 L 27.234375 -45.09375 Z M 73.34375 -48.125 L 27.234375 -48.125 L 27.234375 -59.359375 C 27.234375 -73.203125 29.546875 -80.265625 34 -85.296875 C 38.1875 -90.0625 43.515625 -92.796875 50.28125 -92.796875 C 57.640625 -92.796875 63.6875 -89.484375 67.4375 -84.296875 C 71.90625 -78.25 73.34375 -71.765625 73.34375 -58.21875 Z M 73.34375 -48.125 "/></g></g></g><g fill="#79b4b0" fill-opacity="1"><g transform="translate(283.758444, 223.113961)"><g><path d="M 46.109375 0 L 46.109375 -3.03125 L 36.453125 -3.03125 L 36.453125 -132.5625 L 9.359375 -132.5625 L 9.359375 -129.546875 L 19.3125 -129.546875 L 19.3125 -3.03125 L 9.359375 -3.03125 L 9.359375 0 Z M 46.109375 0 "/></g></g></g><g fill="#79b4b0" fill-opacity="1"><g transform="translate(330.585666, 223.113961)"><g><path d="M 46.109375 0 L 46.109375 -3.03125 L 36.453125 -3.03125 L 36.453125 -132.5625 L 9.359375 -132.5625 L 9.359375 -129.546875 L 19.3125 -129.546875 L 19.3125 -3.03125 L 9.359375 -3.03125 L 9.359375 0 Z M 46.109375 0 "/></g></g></g><g fill="#79b4b0" fill-opacity="1"><g transform="translate(377.412917, 223.113961)"><g><path d="M 63.984375 -73.625 L 63.984375 -96.6875 L 60.953125 -96.6875 L 60.953125 -85.59375 C 57.5 -92.078125 50.71875 -95.828125 41.78125 -95.828125 C 26.796875 -95.828125 14.40625 -83.28125 14.40625 -67.71875 C 14.40625 -33 64.84375 -45.671875 64.84375 -20.890625 C 64.84375 -9.9375 55.1875 -1.578125 41.9375 -1.578125 C 27.09375 -1.578125 15.5625 -12.390625 14.40625 -27.515625 L 11.390625 -27.515625 L 11.390625 1.4375 L 14.40625 1.4375 L 14.40625 -14.40625 C 19.890625 -4.328125 29.96875 1.4375 41.78125 1.4375 C 59.515625 1.4375 73.484375 -12.109375 73.484375 -28.96875 C 73.484375 -64.265625 24.203125 -50.859375 24.203125 -75.65625 C 24.203125 -85.15625 31.984375 -92.65625 42.359375 -92.65625 C 53.03125 -92.65625 60.234375 -85.453125 61.09375 -73.625 Z M 63.984375 -73.625 "/></g></g></g><g fill="#79b4b0" fill-opacity="1"><g transform="translate(458.099859, 223.113961)"><g><path d="M 81.125 -37.03125 C 81.125 -26.21875 80.984375 -17.875 75.21875 -10.09375 C 72.1875 -6.046875 66.421875 -1.578125 58.21875 -1.578125 C 48.84375 -1.578125 39.34375 -7.78125 35.015625 -18.4375 L 35.015625 -59.359375 C 35.015625 -73.203125 37.3125 -80.265625 41.78125 -85.296875 C 45.96875 -90.0625 51.296875 -92.796875 58.0625 -92.796875 C 65.421875 -92.796875 71.46875 -89.484375 75.21875 -84.296875 C 79.6875 -78.25 81.125 -71.765625 81.125 -58.21875 Z M 17.875 35.15625 L 7.921875 35.15625 L 7.921875 38.1875 L 35.015625 38.1875 L 35.015625 -11.953125 C 39.484375 -4.328125 48.703125 1.4375 58.9375 1.4375 C 70.171875 1.4375 80.984375 -3.890625 87.890625 -11.671875 C 94.8125 -19.453125 98.265625 -29.390625 98.265625 -41.9375 L 98.265625 -52.015625 C 98.265625 -65.84375 95.25 -74.78125 87.328125 -83.4375 C 79.96875 -91.359375 68.734375 -95.828125 58.0625 -95.828125 C 40.640625 -95.828125 24.921875 -84.734375 20.03125 -68.59375 C 18.296875 -63.109375 17.875 -58.640625 17.875 -52.453125 Z M 17.875 35.15625 "/></g></g></g><g fill="#79b4b0" fill-opacity="1"><g transform="translate(566.450864, 223.113961)"><g><path d="M 73.34375 -18.4375 C 69.015625 -7.78125 59.515625 -1.578125 50.140625 -1.578125 C 41.9375 -1.578125 36.171875 -6.046875 33.140625 -10.09375 C 27.375 -17.875 27.234375 -26.21875 27.234375 -37.03125 L 27.234375 -59.359375 C 27.234375 -73.203125 29.546875 -80.265625 34 -85.296875 C 38.1875 -90.0625 43.515625 -92.796875 50.28125 -92.796875 C 57.640625 -92.796875 63.6875 -89.484375 67.4375 -84.296875 C 71.90625 -78.25 73.34375 -71.765625 73.34375 -58.21875 Z M 90.484375 -52.015625 C 90.484375 -65.84375 87.46875 -74.78125 79.546875 -83.4375 C 72.1875 -91.359375 60.953125 -95.828125 50.28125 -95.828125 C 32.859375 -95.828125 17.140625 -84.734375 12.25 -68.59375 C 10.515625 -63.109375 10.09375 -58.640625 10.09375 -52.453125 L 10.09375 -41.9375 C 10.09375 -29.390625 13.546875 -19.453125 20.46875 -11.671875 C 27.375 -3.890625 38.1875 1.4375 49.421875 1.4375 C 59.65625 1.4375 69.015625 -4.328125 73.484375 -11.953125 L 73.484375 0 L 100.4375 0 L 100.4375 -3.03125 L 90.484375 -3.03125 Z M 90.484375 -52.015625 "/></g></g></g><g fill="#79b4b0" fill-opacity="1"><g transform="translate(672.208368, 223.113961)"><g><path d="M 72.484375 -20.3125 C 70.75 -10.234375 62.6875 -1.578125 50.859375 -1.578125 C 41.0625 -1.578125 34.15625 -6.765625 30.6875 -13.984375 C 27.8125 -20.03125 27.234375 -25.796875 27.234375 -39.765625 L 27.234375 -60.515625 C 27.234375 -71.328125 28.96875 -78.8125 32.5625 -83.578125 C 37.171875 -89.765625 42.359375 -92.796875 50.859375 -92.796875 C 60.953125 -92.796875 71.03125 -84.734375 71.03125 -73.78125 L 71.03125 -72.484375 L 74.0625 -72.484375 L 74.0625 -95.53125 L 71.03125 -95.53125 L 71.03125 -85.59375 C 66.578125 -91.78125 59.21875 -95.828125 49.140625 -95.828125 C 37.46875 -95.828125 26.953125 -90.34375 20.171875 -82.5625 C 13.546875 -75.078125 10.09375 -66.140625 10.09375 -52.15625 L 10.09375 -42.078125 C 10.09375 -28.671875 13.109375 -19.890625 20.03125 -11.953125 C 27.671875 -3.171875 39.484375 1.578125 50.71875 1.578125 C 63.546875 1.578125 73.625 -7.0625 75.796875 -20.3125 Z M 72.484375 -20.3125 "/></g></g></g><g fill="#79b4b0" fill-opacity="1"><g transform="translate(753.327546, 223.113961)"><g><path d="M 90.34375 -45.09375 L 90.34375 -51.734375 C 90.34375 -69.015625 85.734375 -77.8125 76.953125 -85.875 C 70.03125 -92.21875 59.515625 -95.828125 50.28125 -95.828125 C 26.515625 -95.828125 10.09375 -77.953125 10.09375 -53.453125 L 10.09375 -41.9375 C 10.09375 -28.390625 13.109375 -19.453125 20.609375 -11.234375 C 27.671875 -3.609375 38.328125 1.4375 51.15625 1.4375 C 68.015625 1.4375 80.984375 -7.5 88.765625 -24.5 L 86.03125 -25.796875 C 77.8125 -9.078125 66.71875 -1.578125 51.578125 -1.578125 C 40.34375 -1.578125 33.28125 -6.921875 29.96875 -15.28125 C 27.515625 -21.46875 27.234375 -29.390625 27.234375 -40.0625 L 27.234375 -45.09375 Z M 73.34375 -48.125 L 27.234375 -48.125 L 27.234375 -59.359375 C 27.234375 -73.203125 29.546875 -80.265625 34 -85.296875 C 38.1875 -90.0625 43.515625 -92.796875 50.28125 -92.796875 C 57.640625 -92.796875 63.6875 -89.484375 67.4375 -84.296875 C 71.90625 -78.25 73.34375 -71.765625 73.34375 -58.21875 Z M 73.34375 -48.125 "/></g></g></g><g fill="#79b4b0" fill-opacity="1"><g transform="translate(55.362796, 82.241267)"><g><path d="M 24.0625 0.78125 L 20.453125 0.59375 L 15.359375 -0.90625 L 14.21875 -1.375 L 10.140625 -3.546875 L 9.359375 -4.4375 L 7.6875 -6.0625 L 4.859375 -9.90625 L 4.265625 -10.984375 L 3.90625 -12.234375 L 3 -14.28125 L 2.34375 -18.0625 L 2.578125 -25.015625 L 3.0625 -27.59375 L 4.203125 -30.90625 L 4.734375 -31.921875 L 6.78125 -34.921875 L 8.40625 -36.71875 L 10.3125 -38.046875 L 11.15625 -38.765625 L 14.21875 -40.6875 L 16.5 -41.28125 L 17.578125 -41.765625 L 18.78125 -42.125 L 19.984375 -42.359375 L 24.1875 -42.59375 L 27 -42.546875 L 34.859375 -40.078125 L 37.921875 -38.15625 L 40.5 -35.8125 L 41.28125 -34.734375 L 42 -34.015625 L 42.78125 -33 L 43.203125 -31.921875 L 44.28125 -29.9375 L 44.578125 -28.5625 L 45.0625 -27.296875 L 45.546875 -25.078125 L 45.84375 -20.9375 L 45.546875 -16.734375 L 45.296875 -15.421875 L 44.9375 -14.453125 L 44.765625 -13.265625 L 44.34375 -12.125 L 42 -7.984375 L 41.21875 -6.90625 L 37.015625 -2.875 L 31.6875 -0.484375 L 29.40625 0.234375 Z M 22.375 -9.78125 L 25.859375 -9.90625 L 27 -10.203125 L 28.078125 -10.3125 L 29.046875 -10.859375 L 30.125 -11.34375 L 31.984375 -12.78125 L 32.703125 -13.859375 L 33.234375 -14.765625 L 33.90625 -15.65625 L 34.4375 -18.125 L 34.796875 -21.125 L 34.5625 -23.703125 L 34.140625 -24.78125 L 33.78125 -25.984375 L 33.296875 -27.0625 L 31.921875 -29.09375 L 30.0625 -30.484375 L 26.875 -31.859375 L 24 -32.046875 L 21.234375 -31.796875 L 19.984375 -31.5 L 18.90625 -30.953125 L 17.15625 -29.765625 L 16.265625 -28.984375 L 15.484375 -28.015625 L 14.9375 -27 L 14.21875 -26.15625 L 13.859375 -25.078125 L 13.4375 -22.859375 L 13.375 -21.0625 L 13.6875 -18.0625 L 14.8125 -14.703125 L 15.59375 -13.859375 L 16.203125 -13.015625 L 18.0625 -11.40625 L 20.09375 -10.3125 L 21.1875 -10.203125 Z M 22.375 -9.78125 "/></g></g></g><g fill="#79b4b0" fill-opacity="1"><g transform="translate(103.480925, 82.241267)"><g><path d="M 24.0625 0.78125 L 20.453125 0.59375 L 15.359375 -0.90625 L 14.21875 -1.375 L 10.140625 -3.546875 L 9.359375 -4.4375 L 7.6875 -6.0625 L 4.859375 -9.90625 L 4.265625 -10.984375 L 3.90625 -12.234375 L 3 -14.28125 L 2.34375 -18.0625 L 2.578125 -25.015625 L 3.0625 -27.59375 L 4.203125 -30.90625 L 4.734375 -31.921875 L 6.78125 -34.921875 L 8.40625 -36.71875 L 10.3125 -38.046875 L 11.15625 -38.765625 L 14.21875 -40.6875 L 16.5 -41.28125 L 17.578125 -41.765625 L 18.78125 -42.125 L 19.984375 -42.359375 L 24.1875 -42.59375 L 27 -42.546875 L 34.859375 -40.078125 L 37.921875 -38.15625 L 40.5 -35.8125 L 41.28125 -34.734375 L 42 -34.015625 L 42.78125 -33 L 43.203125 -31.921875 L 44.28125 -29.9375 L 44.578125 -28.5625 L 45.0625 -27.296875 L 45.546875 -25.078125 L 45.84375 -20.9375 L 45.546875 -16.734375 L 45.296875 -15.421875 L 44.9375 -14.453125 L 44.765625 -13.265625 L 44.34375 -12.125 L 42 -7.984375 L 41.21875 -6.90625 L 37.015625 -2.875 L 31.6875 -0.484375 L 29.40625 0.234375 Z M 22.375 -9.78125 L 25.859375 -9.90625 L 27 -10.203125 L 28.078125 -10.3125 L 29.046875 -10.859375 L 30.125 -11.34375 L 31.984375 -12.78125 L 32.703125 -13.859375 L 33.234375 -14.765625 L 33.90625 -15.65625 L 34.4375 -18.125 L 34.796875 -21.125 L 34.5625 -23.703125 L 34.140625 -24.78125 L 33.78125 -25.984375 L 33.296875 -27.0625 L 31.921875 -29.09375 L 30.0625 -30.484375 L 26.875 -31.859375 L 24 -32.046875 L 21.234375 -31.796875 L 19.984375 -31.5 L 18.90625 -30.953125 L 17.15625 -29.765625 L 16.265625 -28.984375 L 15.484375 -28.015625 L 14.9375 -27 L 14.21875 -26.15625 L 13.859375 -25.078125 L 13.4375 -22.859375 L 13.375 -21.0625 L 13.6875 -18.0625 L 14.8125 -14.703125 L 15.59375 -13.859375 L 16.203125 -13.015625 L 18.0625 -11.40625 L 20.09375 -10.3125 L 21.1875 -10.203125 Z M 22.375 -9.78125 "/></g></g></g><g fill="#79b4b0" fill-opacity="1"><g transform="translate(151.599054, 82.241267)"><g><path d="M 14.703125 -1.3125 L 14.34375 -2.34375 L 13.796875 -3.484375 L 8.9375 -17.09375 L 8.40625 -18.0625 L 6.71875 -22.5625 L 6.359375 -23.875 L 3.90625 -30.59375 L 3.359375 -31.625 L 0.84375 -38.453125 L 0.546875 -40.078125 L 0.78125 -41.453125 L 2.046875 -41.8125 L 3.296875 -41.875 L 4.375 -42.0625 L 5.453125 -41.8125 L 10.265625 -41.765625 L 11.40625 -41.21875 L 12.484375 -40.265625 L 12.953125 -39.0625 L 13.203125 -37.859375 L 13.921875 -35.515625 L 14.40625 -34.5 L 18.234375 -21.421875 L 18.484375 -19.984375 L 18.953125 -20.046875 L 19.859375 -22.3125 L 20.09375 -23.578125 L 20.703125 -24.484375 L 22.859375 -31.4375 L 23.765625 -33.59375 L 25.734375 -39.546875 L 26.765625 -40.734375 L 27.953125 -41.34375 L 29.28125 -41.34375 L 30.546875 -40.625 L 31.375 -39.421875 L 31.859375 -38.34375 L 32.34375 -37.3125 L 33.0625 -34.921875 L 33.546875 -33.78125 L 34.140625 -31.5 L 36.71875 -24.71875 L 37.015625 -23.515625 L 38.21875 -20.09375 L 38.8125 -20.046875 L 39.1875 -21.1875 L 39.59375 -23.703125 L 40.375 -26.21875 L 40.625 -27.421875 L 43.921875 -37.984375 L 44.453125 -39 L 44.765625 -40.140625 L 45.78125 -41.40625 L 47.046875 -42 L 48.1875 -41.8125 L 49.4375 -41.9375 L 51.84375 -41.8125 L 53.9375 -41.9375 L 55.140625 -41.765625 L 56.34375 -41.453125 L 56.703125 -40.015625 L 55.5625 -36.359375 L 54.953125 -35.28125 L 54.65625 -33.953125 L 50.8125 -23.765625 L 50.578125 -22.734375 L 50.046875 -21.65625 L 49.5625 -19.984375 L 47.578125 -14.875 L 47.046875 -13.859375 L 43.4375 -3.421875 L 42.90625 -2.34375 L 42.546875 -1.203125 L 41.640625 -0.125 L 40.203125 0.359375 L 39.1875 0.546875 L 38.046875 0.59375 L 36.65625 -0.125 L 35.515625 -1.375 L 35.15625 -2.515625 L 34.265625 -4.5 L 30.84375 -13.734375 L 29.8125 -15.78125 L 29.453125 -17.046875 L 28.859375 -18.0625 L 28.265625 -18.234375 L 27.484375 -15.90625 L 26.40625 -13.625 L 26.046875 -12.359375 L 24.1875 -7.921875 L 23.875 -6.953125 L 23.34375 -5.703125 L 23.046875 -4.6875 L 22.4375 -3.59375 L 22.078125 -2.28125 L 21.546875 -1.265625 L 20.578125 0 L 19.265625 0.484375 L 16.984375 0.546875 L 15.65625 -0.234375 Z M 14.703125 -1.3125 "/></g></g></g></svg>